STARTFONT 2.1
FONT -DIGITAL-VT220-medium-I-Normal-80col-20-200-150-75-c-200-iso10646-1
SIZE 20 75 75
FONTBOUNDINGBOX 26 20 -3 -4
STARTPROPERTIES 21
FOUNDRY "DIGITAL"
FAMILY_NAME "vt220"
WEIGHT_NAME "medium"
RELATIVE_SETWIDTH 50
SLANT "I"
SETWIDTH_NAME "Normal"
ADD_STYLE_NAME "80col"
PIXEL_SIZE 20
POINT_SIZE 200
RESOLUTION_X 75
RESOLUTION_Y 75
SPACING "c"
CHARSET_REGISTRY "ISO10646"
CHARSET_ENCODING "1"
CAP_HEIGHT 14
X_HEIGHT 10
WEIGHT 10
QUAD_WIDTH 20
FONT_ASCENT 16
FONT_DESCENT 4
AVERAGE_WIDTH 200
ENDPROPERTIES
CHARS 237
STARTCHAR U+00FD
ENCODING 253
SWIDTH 1000 0
DWIDTH 20 0
BBX 26 20 -3 -4
BITMAP
00000000
00000000
00000000
00000000
00000000
00000000
00000000
00000000
00000000
00000000
00000000
00000000
00000000
00000000
00000000
00000000
00000000
00000000
00000000
00000000
ENDCHAR
STARTCHAR U+25A1
ENCODING 9633
SWIDTH 1000 0
DWIDTH 20 0
BBX 26 20 -3 -4
BITMAP
00000000
00000000
03FFF800
07FFF000
07007000
07007000
0E00E000
0E00E000
0E00E000
1C01C000
1C01C000
1C01C000
38038000
38038000
3FFF8000
7FFF0000
00000000
00000000
00000000
00000000
ENDCHAR
STARTCHAR U+00FE
ENCODING 254
SWIDTH 1000 0
DWIDTH 20 0
BBX 26 20 -3 -4
BITMAP
00000000
00000000
03800000
07000000
07000000
07000000
0EFF8000
0EFF8000
0F80E000
1F01C000
1F01C000
1F01C000
3BFE0000
3BFE0000
38000000
70000000
70000000
70000000
E0000000
E0000000
ENDCHAR
STARTCHAR U+00FF
ENCODING 255
SWIDTH 1000 0
DWIDTH 20 0
BBX 26 20 -3 -4
BITMAP
00000000
00000000
00E0E000
01C1C000
00000000
00000000
0E038000
0E038000
0E038000
1C070000
1C1F0000
1C1F0000
0FEE0000
0FEE0000
000E0000
001C0000
701C0000
701C0000
3FE00000
3FE00000
ENDCHAR
STARTCHAR U+00FC
ENCODING 252
SWIDTH 1000 0
DWIDTH 20 0
BBX 26 20 -3 -4
BITMAP
00000000
00000000
00E0E000
01C1C000
00000000
00000000
0E038000
0E038000
0E038000
1C070000
1C070000
1C070000
380E0000
380E0000
0FFB8000
1FF70000
00000000
00000000
00000000
00000000
ENDCHAR
STARTCHAR U+00FB
ENCODING 251
SWIDTH 1000 0
DWIDTH 20 0
BBX 26 20 -3 -4
BITMAP
003F8000
003F8000
00E0E000
01C1C000
00000000
00000000
0E038000
0E038000
0E038000
1C070000
1C070000
1C070000
380E0000
380E0000
0FFB8000
1FF70000
00000000
00000000
00000000
00000000
ENDCHAR
STARTCHAR U+00FA
ENCODING 250
SWIDTH 1000 0
DWIDTH 20 0
BBX 26 20 -3 -4
BITMAP
00000000
00000000
000F8000
001F0000
01F00000
01F00000
0E038000
0E038000
0E038000
1C070000
1C070000
1C070000
380E0000
380E0000
0FFB8000
1FF70000
00000000
00000000
00000000
00000000
ENDCHAR
STARTCHAR U+00F9
ENCODING 249
SWIDTH 1000 0
DWIDTH 20 0
BBX 26 20 -3 -4
BITMAP
00000000
00000000
00F80000
01F00000
001F0000
001F0000
0E038000
0E038000
0E038000
1C070000
1C070000
1C070000
380E0000
380E0000
0FFB8000
1FF70000
00000000
00000000
00000000
00000000
ENDCHAR
STARTCHAR U+00F8
ENCODING 248
SWIDTH 1000 0
DWIDTH 20 0
BBX 26 20 -3 -4
BITMAP
00000000
00000000
00000000
00000000
00007000
00007000
03FF8000
03FF8000
0E0EE000
1C1DC000
1C71C000
1C71C000
3B838000
3B838000
0FFE0000
1FFC0000
70000000
70000000
00000000
00000000
ENDCHAR
STARTCHAR U+0153
ENCODING 339
SWIDTH 1000 0
DWIDTH 20 0
BBX 26 20 -3 -4
BITMAP
00000000
00000000
00000000
00000000
00000000
00000000
03EF8000
03EF8000
0E38E000
1C71C000
1C7FC000
1C7FC000
38E00000
38E00000
0FBF8000
1F7F0000
00000000
00000000
00000000
00000000
ENDCHAR
STARTCHAR U+00F6
ENCODING 246
SWIDTH 1000 0
DWIDTH 20 0
BBX 26 20 -3 -4
BITMAP
00000000
00000000
00E0E000
01C1C000
00000000
00000000
03FF8000
03FF8000
0E00E000
1C01C000
1C01C000
1C01C000
38038000
38038000
0FFE0000
1FFC0000
00000000
00000000
00000000
00000000
ENDCHAR
STARTCHAR U+00F5
ENCODING 245
SWIDTH 1000 0
DWIDTH 20 0
BBX 26 20 -3 -4
BITMAP
00F8E000
00F8E000
038F8000
071F0000
00000000
00000000
03FF8000
03FF8000
0E00E000
1C01C000
1C01C000
1C01C000
38038000
38038000
0FFE0000
1FFC0000
00000000
00000000
00000000
00000000
ENDCHAR
STARTCHAR U+00F4
ENCODING 244
SWIDTH 1000 0
DWIDTH 20 0
BBX 26 20 -3 -4
BITMAP
003F8000
003F8000
00E0E000
01C1C000
00000000
00000000
03FF8000
03FF8000
0E00E000
1C01C000
1C01C000
1C01C000
38038000
38038000
0FFE0000
1FFC0000
00000000
00000000
00000000
00000000
ENDCHAR
STARTCHAR U+00F3
ENCODING 243
SWIDTH 1000 0
DWIDTH 20 0
BBX 26 20 -3 -4
BITMAP
00000000
00000000
000F8000
001F0000
01F00000
01F00000
03FF8000
03FF8000
0E00E000
1C01C000
1C01C000
1C01C000
38038000
38038000
0FFE0000
1FFC0000
00000000
00000000
00000000
00000000
ENDCHAR
STARTCHAR U+00F2
ENCODING 242
SWIDTH 1000 0
DWIDTH 20 0
BBX 26 20 -3 -4
BITMAP
00000000
00000000
003E0000
007C0000
0007C000
0007C000
03FF8000
03FF8000
0E00E000
1C01C000
1C01C000
1C01C000
38038000
38038000
0FFE0000
1FFC0000
00000000
00000000
00000000
00000000
ENDCHAR
STARTCHAR U+00F1
ENCODING 241
SWIDTH 1000 0
DWIDTH 20 0
BBX 26 20 -3 -4
BITMAP
00F8E000
00F8E000
038F8000
071F0000
00000000
00000000
0EFF8000
0EFF8000
0F80E000
1F01C000
1C01C000
1C01C000
38038000
38038000
38038000
70070000
00000000
00000000
00000000
00000000
ENDCHAR
STARTCHAR U+00F0
ENCODING 240
SWIDTH 1000 0
DWIDTH 20 0
BBX 26 20 -3 -4
BITMAP
000E3800
000E3800
0003E000
0007C000
001C7000
001C7000
03FEE000
03FEE000
0E03E000
1C07C000
1C01C000
1C01C000
380E0000
380E0000
0FF80000
1FF00000
00000000
00000000
00000000
00000000
ENDCHAR
STARTCHAR U+00EF
ENCODING 239
SWIDTH 1000 0
DWIDTH 20 0
BBX 26 20 -3 -4
BITMAP
00000000
00000000
00E0E000
01C1C000
00000000
00000000
00F80000
00F80000
00380000
00700000
00700000
00700000
00E00000
00E00000
0FFE0000
1FFC0000
00000000
00000000
00000000
00000000
ENDCHAR
STARTCHAR U+00EE
ENCODING 238
SWIDTH 1000 0
DWIDTH 20 0
BBX 26 20 -3 -4
BITMAP
003F8000
003F8000
00E0E000
01C1C000
00000000
00000000
00F80000
00F80000
00380000
00700000
00700000
00700000
00E00000
00E00000
0FFE0000
1FFC0000
00000000
00000000
00000000
00000000
ENDCHAR
STARTCHAR U+00ED
ENCODING 237
SWIDTH 1000 0
DWIDTH 20 0
BBX 26 20 -3 -4
BITMAP
00000000
00000000
000F8000
001F0000
01F00000
01F00000
00F80000
00F80000
00380000
00700000
00700000
00700000
00E00000
00E00000
0FFE0000
1FFC0000
00000000
00000000
00000000
00000000
ENDCHAR
STARTCHAR U+00EC
ENCODING 236
SWIDTH 1000 0
DWIDTH 20 0
BBX 26 20 -3 -4
BITMAP
00000000
00000000
00F80000
01F00000
001F0000
001F0000
00F80000
00F80000
00380000
00700000
00700000
00700000
00E00000
00E00000
0FFE0000
1FFC0000
00000000
00000000
00000000
00000000
ENDCHAR
STARTCHAR U+00EB
ENCODING 235
SWIDTH 1000 0
DWIDTH 20 0
BBX 26 20 -3 -4
BITMAP
00000000
00000000
00E0E000
01C1C000
00000000
00000000
03FF8000
03FF8000
0E00E000
1C01C000
1FFFC000
1FFFC000
38000000
38000000
0FFE0000
1FFC0000
00000000
00000000
00000000
00000000
ENDCHAR
STARTCHAR U+00EA
ENCODING 234
SWIDTH 1000 0
DWIDTH 20 0
BBX 26 20 -3 -4
BITMAP
003F8000
003F8000
00E0E000
01C1C000
00000000
00000000
03FF8000
03FF8000
0E00E000
1C01C000
1FFFC000
1FFFC000
38000000
38000000
0FFE0000
1FFC0000
00000000
00000000
00000000
00000000
ENDCHAR
STARTCHAR U+00E9
ENCODING 233
SWIDTH 1000 0
DWIDTH 20 0
BBX 26 20 -3 -4
BITMAP
00000000
00000000
000F8000
001F0000
01F00000
01F00000
03FF8000
03FF8000
0E00E000
1C01C000
1FFFC000
1FFFC000
38000000
38000000
0FFE0000
1FFC0000
00000000
00000000
00000000
00000000
ENDCHAR
STARTCHAR U+00E8
ENCODING 232
SWIDTH 1000 0
DWIDTH 20 0
BBX 26 20 -3 -4
BITMAP
00000000
00000000
003E0000
007C0000
0007C000
0007C000
03FF8000
03FF8000
0E00E000
1C01C000
1FFFC000
1FFFC000
38000000
38000000
0FFE0000
1FFC0000
00000000
00000000
00000000
00000000
ENDCHAR
STARTCHAR U+00E7
ENCODING 231
SWIDTH 1000 0
DWIDTH 20 0
BBX 26 20 -3 -4
BITMAP
00000000
00000000
00000000
00000000
00000000
00000000
03FF8000
03FF8000
0E00E000
1C01C000
1C000000
1C000000
38038000
38038000
0FFE0000
1FFC0000
00700000
00700000
0FE00000
0FE00000
ENDCHAR
STARTCHAR U+00E6
ENCODING 230
SWIDTH 1000 0
DWIDTH 20 0
BBX 26 20 -3 -4
BITMAP
00000000
00000000
00000000
00000000
00000000
00000000
03EF8000
03EF8000
0038E000
0071C000
07FFC000
07FFC000
38E00000
38E00000
0FFF8000
1FFF0000
00000000
00000000
00000000
00000000
ENDCHAR
STARTCHAR U+00E5
ENCODING 229
SWIDTH 1000 0
DWIDTH 20 0
BBX 26 20 -3 -4
BITMAP
003F8000
003F8000
00E0E000
01C1C000
007F0000
007F0000
03FF8000
03FF8000
0000E000
0001C000
07FFC000
07FFC000
380F8000
380F8000
0FFB8000
1FF70000
00000000
00000000
00000000
00000000
ENDCHAR
STARTCHAR U+00E4
ENCODING 228
SWIDTH 1000 0
DWIDTH 20 0
BBX 26 20 -3 -4
BITMAP
00000000
00000000
00E0E000
01C1C000
00000000
00000000
03FF8000
03FF8000
0000E000
0001C000
07FFC000
07FFC000
380F8000
380F8000
0FFB8000
1FF70000
00000000
00000000
00000000
00000000
ENDCHAR
STARTCHAR U+00E3
ENCODING 227
SWIDTH 1000 0
DWIDTH 20 0
BBX 26 20 -3 -4
BITMAP
003E3800
003E3800
00E3E000
01C7C000
00000000
00000000
03FF8000
03FF8000
0000E000
0001C000
07FFC000
07FFC000
380F8000
380F8000
0FFB8000
1FF70000
00000000
00000000
00000000
00000000
ENDCHAR
STARTCHAR U+00E2
ENCODING 226
SWIDTH 1000 0
DWIDTH 20 0
BBX 26 20 -3 -4
BITMAP
003F8000
003F8000
00E0E000
01C1C000
00000000
00000000
03FF8000
03FF8000
0000E000
0001C000
07FFC000
07FFC000
380F8000
380F8000
0FFB8000
1FF70000
00000000
00000000
00000000
00000000
ENDCHAR
STARTCHAR U+00E1
ENCODING 225
SWIDTH 1000 0
DWIDTH 20 0
BBX 26 20 -3 -4
BITMAP
00000000
00000000
000F8000
001F0000
01F00000
01F00000
03FF8000
03FF8000
0000E000
0001C000
07FFC000
07FFC000
380F8000
380F8000
0FFB8000
1FF70000
00000000
00000000
00000000
00000000
ENDCHAR
STARTCHAR U+00E0
ENCODING 224
SWIDTH 1000 0
DWIDTH 20 0
BBX 26 20 -3 -4
BITMAP
00000000
00000000
003E0000
007C0000
0007C000
0007C000
03FF8000
03FF8000
0000E000
0001C000
07FFC000
07FFC000
380F8000
380F8000
0FFB8000
1FF70000
00000000
00000000
00000000
00000000
ENDCHAR
STARTCHAR U+00DF
ENCODING 223
SWIDTH 1000 0
DWIDTH 20 0
BBX 26 20 -3 -4
BITMAP
00000000
00000000
003F8000
007F0000
01C1C000
01C1C000
0E038000
0E038000
0EFE0000
1DFC0000
1C070000
1C070000
3B838000
3B838000
38FE0000
71FC0000
70000000
70000000
00000000
00000000
ENDCHAR
STARTCHAR U+00DE
ENCODING 222
SWIDTH 1000 0
DWIDTH 20 0
BBX 26 20 -3 -4
BITMAP
00000000
00000000
03E00000
07C00000
01FFC000
01FFC000
0380E000
0380E000
0380E000
0701C000
0701C000
0701C000
0FFE0000
0FFE0000
3E000000
7C000000
00000000
00000000
00000000
00000000
ENDCHAR
STARTCHAR U+0178
ENCODING 376
SWIDTH 1000 0
DWIDTH 20 0
BBX 26 20 -3 -4
BITMAP
00E0E000
00E0E000
00000000
00000000
07007000
07007000
03838000
03838000
00EE0000
01DC0000
00700000
00700000
00E00000
00E00000
00E00000
01C00000
00000000
00000000
00000000
00000000
ENDCHAR
STARTCHAR U+00DC
ENCODING 220
SWIDTH 1000 0
DWIDTH 20 0
BBX 26 20 -3 -4
BITMAP
00E0E000
00E0E000
00000000
00000000
07007000
07007000
0E00E000
0E00E000
0E00E000
1C01C000
1C01C000
1C01C000
38038000
38038000
0FFE0000
1FFC0000
00000000
00000000
00000000
00000000
ENDCHAR
STARTCHAR U+00DB
ENCODING 219
SWIDTH 1000 0
DWIDTH 20 0
BBX 26 20 -3 -4
BITMAP
000E0000
000E0000
003B8000
00770000
07007000
07007000
0E00E000
0E00E000
0E00E000
1C01C000
1C01C000
1C01C000
38038000
38038000
0FFE0000
1FFC0000
00000000
00000000
00000000
00000000
ENDCHAR
STARTCHAR U+00DA
ENCODING 218
SWIDTH 1000 0
DWIDTH 20 0
BBX 26 20 -3 -4
BITMAP
0003E000
0003E000
003E0000
007C0000
07007000
07007000
0E00E000
0E00E000
0E00E000
1C01C000
1C01C000
1C01C000
38038000
38038000
0FFE0000
1FFC0000
00000000
00000000
00000000
00000000
ENDCHAR
STARTCHAR U+00D9
ENCODING 217
SWIDTH 1000 0
DWIDTH 20 0
BBX 26 20 -3 -4
BITMAP
00F80000
00F80000
000F8000
001F0000
07007000
07007000
0E00E000
0E00E000
0E00E000
1C01C000
1C01C000
1C01C000
38038000
38038000
0FFE0000
1FFC0000
00000000
00000000
00000000
00000000
ENDCHAR
STARTCHAR U+00D8
ENCODING 216
SWIDTH 1000 0
DWIDTH 20 0
BBX 26 20 -3 -4
BITMAP
00003800
00003800
00FFE000
01FFC000
0701F000
0701F000
0E0EE000
0E0EE000
0E38E000
1C71C000
1DC1C000
1DC1C000
3E038000
3E038000
0FFE0000
1FFC0000
70000000
70000000
00000000
00000000
ENDCHAR
STARTCHAR U+0152
ENCODING 338
SWIDTH 1000 0
DWIDTH 20 0
BBX 26 20 -3 -4
BITMAP
00000000
00000000
00FBF800
01F7F000
071C0000
071C0000
0E380000
0E380000
0E3F8000
1C7F0000
1C700000
1C700000
38E00000
38E00000
0FBF8000
1F7F0000
00000000
00000000
00000000
00000000
ENDCHAR
STARTCHAR U+00D6
ENCODING 214
SWIDTH 1000 0
DWIDTH 20 0
BBX 26 20 -3 -4
BITMAP
00E0E000
00E0E000
00000000
00000000
01FFC000
01FFC000
0E00E000
0E00E000
0E00E000
1C01C000
1C01C000
1C01C000
38038000
38038000
0FFE0000
1FFC0000
00000000
00000000
00000000
00000000
ENDCHAR
STARTCHAR U+00D5
ENCODING 213
SWIDTH 1000 0
DWIDTH 20 0
BBX 26 20 -3 -4
BITMAP
00F8E000
00F8E000
038F8000
071F0000
01FFC000
01FFC000
0E00E000
0E00E000
0E00E000
1C01C000
1C01C000
1C01C000
38038000
38038000
0FFE0000
1FFC0000
00000000
00000000
00000000
00000000
ENDCHAR
STARTCHAR U+00D4
ENCODING 212
SWIDTH 1000 0
DWIDTH 20 0
BBX 26 20 -3 -4
BITMAP
003F8000
003F8000
00E0E000
01C1C000
01FFC000
01FFC000
0E00E000
0E00E000
0E00E000
1C01C000
1C01C000
1C01C000
38038000
38038000
0FFE0000
1FFC0000
00000000
00000000
00000000
00000000
ENDCHAR
STARTCHAR U+00D3
ENCODING 211
SWIDTH 1000 0
DWIDTH 20 0
BBX 26 20 -3 -4
BITMAP
000F8000
000F8000
00F80000
01F00000
01FFC000
01FFC000
0E00E000
0E00E000
0E00E000
1C01C000
1C01C000
1C01C000
38038000
38038000
0FFE0000
1FFC0000
00000000
00000000
00000000
00000000
ENDCHAR
STARTCHAR U+00D2
ENCODING 210
SWIDTH 1000 0
DWIDTH 20 0
BBX 26 20 -3 -4
BITMAP
003E0000
003E0000
0003E000
0007C000
01FFC000
01FFC000
0E00E000
0E00E000
0E00E000
1C01C000
1C01C000
1C01C000
38038000
38038000
0FFE0000
1FFC0000
00000000
00000000
00000000
00000000
ENDCHAR
STARTCHAR U+00D1
ENCODING 209
SWIDTH 1000 0
DWIDTH 20 0
BBX 26 20 -3 -4
BITMAP
003E3800
003E3800
00E3E000
01C7C000
07C07000
07C07000
0EE0E000
0EE0E000
0E38E000
1C71C000
1C1DC000
1C1DC000
380F8000
380F8000
38038000
70070000
00000000
00000000
00000000
00000000
ENDCHAR
STARTCHAR U+00D0
ENCODING 208
SWIDTH 1000 0
DWIDTH 20 0
BBX 26 20 -3 -4
BITMAP
00000000
00000000
03FF8000
07FF0000
01C1C000
01C1C000
0380E000
0380E000
0FF8E000
1FF1C000
0701C000
0701C000
0E0E0000
0E0E0000
3FF80000
7FF00000
00000000
00000000
00000000
00000000
ENDCHAR
STARTCHAR U+00CF
ENCODING 207
SWIDTH 1000 0
DWIDTH 20 0
BBX 26 20 -3 -4
BITMAP
00E0E000
00E0E000
00000000
00000000
01FFC000
01FFC000
00380000
00380000
00380000
00700000
00700000
00700000
00E00000
00E00000
0FFE0000
1FFC0000
00000000
00000000
00000000
00000000
ENDCHAR
STARTCHAR U+00CE
ENCODING 206
SWIDTH 1000 0
DWIDTH 20 0
BBX 26 20 -3 -4
BITMAP
003F8000
003F8000
00E0E000
01C1C000
01FFC000
01FFC000
00380000
00380000
00380000
00700000
00700000
00700000
00E00000
00E00000
0FFE0000
1FFC0000
00000000
00000000
00000000
00000000
ENDCHAR
STARTCHAR U+00CD
ENCODING 205
SWIDTH 1000 0
DWIDTH 20 0
BBX 26 20 -3 -4
BITMAP
000F8000
000F8000
00F80000
01F00000
01FFC000
01FFC000
00380000
00380000
00380000
00700000
00700000
00700000
00E00000
00E00000
0FFE0000
1FFC0000
00000000
00000000
00000000
00000000
ENDCHAR
STARTCHAR U+00CC
ENCODING 204
SWIDTH 1000 0
DWIDTH 20 0
BBX 26 20 -3 -4
BITMAP
003E0000
003E0000
0003E000
0007C000
01FFC000
01FFC000
00380000
00380000
00380000
00700000
00700000
00700000
00E00000
00E00000
0FFE0000
1FFC0000
00000000
00000000
00000000
00000000
ENDCHAR
STARTCHAR U+00CB
ENCODING 203
SWIDTH 1000 0
DWIDTH 20 0
BBX 26 20 -3 -4
BITMAP
00E0E000
00E0E000
00000000
00000000
07FFF000
07FFF000
0E000000
0E000000
0FFE0000
1FFC0000
1C000000
1C000000
38000000
38000000
3FFF8000
7FFF0000
00000000
00000000
00000000
00000000
ENDCHAR
STARTCHAR U+00CA
ENCODING 202
SWIDTH 1000 0
DWIDTH 20 0
BBX 26 20 -3 -4
BITMAP
003F8000
003F8000
00E0E000
01C1C000
07FFF000
07FFF000
0E000000
0E000000
0FF80000
1FF00000
1C000000
1C000000
38000000
38000000
3FFF8000
7FFF0000
00000000
00000000
00000000
00000000
ENDCHAR
STARTCHAR U+00C9
ENCODING 201
SWIDTH 1000 0
DWIDTH 20 0
BBX 26 20 -3 -4
BITMAP
0003E000
0003E000
003E0000
007C0000
07FFF000
07FFF000
0E000000
0E000000
0FFE0000
1FFC0000
1C000000
1C000000
38000000
38000000
3FFF8000
7FFF0000
00000000
00000000
00000000
00000000
ENDCHAR
STARTCHAR U+00C8
ENCODING 200
SWIDTH 1000 0
DWIDTH 20 0
BBX 26 20 -3 -4
BITMAP
00F80000
00F80000
000F8000
001F0000
07FFF000
07FFF000
0E000000
0E000000
0FFE0000
1FFC0000
1C000000
1C000000
38000000
38000000
3FFF8000
7FFF0000
00000000
00000000
00000000
00000000
ENDCHAR
STARTCHAR U+00C7
ENCODING 199
SWIDTH 1000 0
DWIDTH 20 0
BBX 26 20 -3 -4
BITMAP
00000000
00000000
003FE000
007FC000
01C07000
01C07000
0E000000
0E000000
0E000000
1C000000
1C000000
1C000000
0E038000
0E038000
03FE0000
07FC0000
00700000
00700000
0FE00000
0FE00000
ENDCHAR
STARTCHAR U+00C6
ENCODING 198
SWIDTH 1000 0
DWIDTH 20 0
BBX 26 20 -3 -4
BITMAP
00000000
00000000
003FF800
007FF000
01DC0000
01DC0000
0E380000
0E380000
0E3F8000
1C7F0000
1FF00000
1FF00000
38E00000
38E00000
38FF8000
71FF0000
00000000
00000000
00000000
00000000
ENDCHAR
STARTCHAR U+00C5
ENCODING 197
SWIDTH 1000 0
DWIDTH 20 0
BBX 26 20 -3 -4
BITMAP
003F8000
003F8000
00E0E000
01C1C000
007F0000
007F0000
00FE0000
00FE0000
03838000
07070000
1FFFC000
1FFFC000
38038000
38038000
38038000
70070000
00000000
00000000
00000000
00000000
ENDCHAR
STARTCHAR U+00C4
ENCODING 196
SWIDTH 1000 0
DWIDTH 20 0
BBX 26 20 -3 -4
BITMAP
00E0E000
00E0E000
00000000
00000000
001C0000
001C0000
00EE0000
00EE0000
03838000
07070000
1FFFC000
1FFFC000
38038000
38038000
38038000
70070000
00000000
00000000
00000000
00000000
ENDCHAR
STARTCHAR U+00C3
ENCODING 195
SWIDTH 1000 0
DWIDTH 20 0
BBX 26 20 -3 -4
BITMAP
003E3800
003E3800
00E3E000
01C7C000
001C0000
001C0000
00EE0000
00EE0000
03838000
07070000
1FFFC000
1FFFC000
38038000
38038000
38038000
70070000
00000000
00000000
00000000
00000000
ENDCHAR
STARTCHAR U+00C2
ENCODING 194
SWIDTH 1000 0
DWIDTH 20 0
BBX 26 20 -3 -4
BITMAP
003F8000
003F8000
00E0E000
01C1C000
001C0000
001C0000
00EE0000
00EE0000
03838000
07070000
1FFFC000
1FFFC000
38038000
38038000
38038000
70070000
00000000
00000000
00000000
00000000
ENDCHAR
STARTCHAR U+00C1
ENCODING 193
SWIDTH 1000 0
DWIDTH 20 0
BBX 26 20 -3 -4
BITMAP
000F8000
000F8000
00F80000
01F00000
001C0000
001C0000
00EE0000
00EE0000
03838000
07070000
1FFFC000
1FFFC000
38038000
38038000
38038000
70070000
00000000
00000000
00000000
00000000
ENDCHAR
STARTCHAR U+00C0
ENCODING 192
SWIDTH 1000 0
DWIDTH 20 0
BBX 26 20 -3 -4
BITMAP
003E0000
003E0000
0003E000
0007C000
001C0000
001C0000
00EE0000
00EE0000
03838000
07070000
1FFFC000
1FFFC000
38038000
38038000
38038000
70070000
00000000
00000000
00000000
00000000
ENDCHAR
STARTCHAR U+00BF
ENCODING 191
SWIDTH 1000 0
DWIDTH 20 0
BBX 26 20 -3 -4
BITMAP
00000000
00000000
000E0000
001C0000
00000000
00000000
00380000
00380000
00380000
00700000
07C00000
07C00000
38038000
38038000
0FFE0000
1FFC0000
00000000
00000000
00000000
00000000
ENDCHAR
STARTCHAR U+00BE
ENCODING 190
SWIDTH 1000 0
DWIDTH 20 0
BBX 26 20 -3 -4
BITMAP
03FE0000
03FE0000
000E0000
001C0000
01F1C000
01F1C000
003E0000
003E0000
0FF80000
1FF00000
01C70000
01C70000
0E3E0000
0E3E0000
38EE0000
71DC0000
07FF0000
07FF0000
00380000
00380000
ENDCHAR
STARTCHAR U+00BD
ENCODING 189
SWIDTH 1000 0
DWIDTH 20 0
BBX 26 20 -3 -4
BITMAP
00000000
00000000
00E00000
01C00000
07C1C000
07C1C000
038E0000
038E0000
03B80000
07700000
01DF0000
01DF0000
0EE38000
0EE38000
380E0000
701C0000
00700000
00700000
03FE0000
03FE0000
ENDCHAR
STARTCHAR U+00BC
ENCODING 188
SWIDTH 1000 0
DWIDTH 20 0
BBX 26 20 -3 -4
BITMAP
00000000
00000000
00E00000
01C00000
07C1C000
07C1C000
038E0000
038E0000
03B80000
07700000
01C70000
01C70000
0E3E0000
0E3E0000
38EE0000
71DC0000
07FF0000
07FF0000
00380000
00380000
ENDCHAR
STARTCHAR U+00BB
ENCODING 187
SWIDTH 1000 0
DWIDTH 20 0
BBX 26 20 -3 -4
BITMAP
00000000
00000000
038E0000
071C0000
01C70000
01C70000
00E38000
00E38000
0038E000
0071C000
01C70000
01C70000
0E380000
0E380000
38E00000
71C00000
00000000
00000000
00000000
00000000
ENDCHAR
STARTCHAR U+00BA
ENCODING 186
SWIDTH 1000 0
DWIDTH 20 0
BBX 26 20 -3 -4
BITMAP
00000000
00000000
00FFE000
01FFC000
07007000
07007000
0E00E000
0E00E000
0E00E000
1C01C000
07FF0000
07FF0000
00000000
00000000
3FFF8000
7FFF0000
00000000
00000000
00000000
00000000
ENDCHAR
STARTCHAR U+00B9
ENCODING 185
SWIDTH 1000 0
DWIDTH 20 0
BBX 26 20 -3 -4
BITMAP
000E0000
000E0000
003E0000
007C0000
001C0000
001C0000
00380000
00380000
00FE0000
01FC0000
00000000
00000000
00000000
00000000
00000000
00000000
00000000
00000000
00000000
00000000
ENDCHAR
STARTCHAR U+00B8
ENCODING 184
SWIDTH 1000 0
DWIDTH 20 0
BBX 26 20 -3 -4
BITMAP
00000000
00000000
00000000
00000000
00000000
00000000
00000000
00000000
00000000
00000000
00000000
00000000
00000000
00000000
00000000
00000000
00700000
00700000
0FE00000
0FE00000
ENDCHAR
STARTCHAR U+2022
ENCODING 8226
SWIDTH 1000 0
DWIDTH 20 0
BBX 26 20 -3 -4
BITMAP
00000000
00000000
00000000
00000000
00000000
00000000
00F80000
00F80000
00F80000
01F00000
00000000
00000000
00000000
00000000
00000000
00000000
00000000
00000000
00000000
00000000
ENDCHAR
STARTCHAR U+00B6
ENCODING 182
SWIDTH 1000 0
DWIDTH 20 0
BBX 26 20 -3 -4
BITMAP
00000000
00000000
00FFF800
01FFF000
07C77000
07C77000
0F8EE000
0F8EE000
03FFE000
07FFC000
001DC000
001DC000
003B8000
003B8000
003B8000
00770000
00000000
00000000
00000000
00000000
ENDCHAR
STARTCHAR U+00B5
ENCODING 181
SWIDTH 1000 0
DWIDTH 20 0
BBX 26 20 -3 -4
BITMAP
00000000
00000000
00000000
00000000
00000000
00000000
0380E000
0380E000
0380E000
0701C000
0701C000
0701C000
0F8F8000
0F8F8000
0EFB8000
1DF70000
1C000000
1C000000
E0000000
E0000000
ENDCHAR
STARTCHAR U+00B4
ENCODING 180
SWIDTH 1000 0
DWIDTH 20 0
BBX 26 20 -3 -4
BITMAP
00000000
00000000
0003E000
0007C000
00070000
00070000
00380000
00380000
00000000
00000000
00000000
00000000
00000000
00000000
00000000
00000000
00000000
00000000
00000000
00000000
ENDCHAR
STARTCHAR U+00B3
ENCODING 179
SWIDTH 1000 0
DWIDTH 20 0
BBX 26 20 -3 -4
BITMAP
00FFE000
00FFE000
0000E000
0001C000
001F0000
001F0000
00038000
00038000
03FE0000
07FC0000
00000000
00000000
00000000
00000000
00000000
00000000
00000000
00000000
00000000
00000000
ENDCHAR
STARTCHAR U+00B2
ENCODING 178
SWIDTH 1000 0
DWIDTH 20 0
BBX 26 20 -3 -4
BITMAP
003F8000
003F8000
00E0E000
01C1C000
001F0000
001F0000
00E00000
00E00000
03FF8000
07FF0000
00000000
00000000
00000000
00000000
00000000
00000000
00000000
00000000
00000000
00000000
ENDCHAR
STARTCHAR U+00AF
ENCODING 175
SWIDTH 1000 0
DWIDTH 20 0
BBX 26 20 -3 -4
BITMAP
00FFE000
00FFE000
00000000
00000000
00000000
00000000
00000000
00000000
00000000
00000000
00000000
00000000
00000000
00000000
00000000
00000000
00000000
00000000
00000000
00000000
ENDCHAR
STARTCHAR U+00AE
ENCODING 174
SWIDTH 1000 0
DWIDTH 20 0
BBX 26 20 -3 -4
BITMAP
00000000
00000000
003F8000
007F0000
01C1C000
01C1C000
0EFEE000
0EFEE000
0EE3E000
1DC7C000
1DFDC000
1DFDC000
3BE38000
3BE38000
0FBE0000
1F7C0000
07F00000
07F00000
00000000
00000000
ENDCHAR
STARTCHAR U+00D7
ENCODING 215
SWIDTH 1000 0
DWIDTH 20 0
BBX 26 20 -3 -4
BITMAP
00000000
00000000
00000000
00000000
01C1C000
01C1C000
00EE0000
00EE0000
00380000
00700000
01DC0000
01DC0000
0E0E0000
0E0E0000
00000000
00000000
00000000
00000000
00000000
00000000
ENDCHAR
STARTCHAR U+00AC
ENCODING 172
SWIDTH 1000 0
DWIDTH 20 0
BBX 26 20 -3 -4
BITMAP
00000000
00000000
00000000
00000000
00000000
00000000
00000000
00000000
00000000
00000000
1FFFC000
1FFFC000
00038000
00038000
00038000
00070000
00000000
00000000
00000000
00000000
ENDCHAR
STARTCHAR U+00AB
ENCODING 171
SWIDTH 1000 0
DWIDTH 20 0
BBX 26 20 -3 -4
BITMAP
00000000
00000000
000E3800
001C7000
0071C000
0071C000
038E0000
038E0000
0E380000
1C700000
071C0000
071C0000
038E0000
038E0000
00E38000
01C70000
00000000
00000000
00000000
00000000
ENDCHAR
STARTCHAR U+00AA
ENCODING 170
SWIDTH 1000 0
DWIDTH 20 0
BBX 26 20 -3 -4
BITMAP
00000000
00000000
00FFE000
01FFC000
00007000
00007000
03FFE000
03FFE000
0E03E000
1C07C000
07FDC000
07FDC000
00000000
00000000
3FFF8000
7FFF0000
00000000
00000000
00000000
00000000
ENDCHAR
STARTCHAR U+00A9
ENCODING 169
SWIDTH 1000 0
DWIDTH 20 0
BBX 26 20 -3 -4
BITMAP
00000000
00000000
003F8000
007F0000
01C1C000
01C1C000
0E3EE000
0E3EE000
0EE0E000
1DC1C000
1DC1C000
1DC1C000
38FB8000
38FB8000
0E0E0000
1C1C0000
07F00000
07F00000
00000000
00000000
ENDCHAR
STARTCHAR U+00A4
ENCODING 164
SWIDTH 1000 0
DWIDTH 20 0
BBX 26 20 -3 -4
BITMAP
00000000
00000000
00000000
00000000
07007000
07007000
03FF8000
03FF8000
03838000
07070000
07FF0000
07FF0000
38038000
38038000
00000000
00000000
00000000
00000000
00000000
00000000
ENDCHAR
STARTCHAR U+00A7
ENCODING 167
SWIDTH 1000 0
DWIDTH 20 0
BBX 26 20 -3 -4
BITMAP
00000000
00000000
003FE000
007FC000
01C00000
01C00000
00FE0000
00FE0000
03838000
07070000
01FC0000
01FC0000
000E0000
000E0000
0FF80000
1FF00000
00000000
00000000
00000000
00000000
ENDCHAR
STARTCHAR U+00A6
ENCODING 166
SWIDTH 1000 0
DWIDTH 20 0
BBX 26 20 -3 -4
BITMAP
00000000
00000000
000E0000
001C0000
001C0000
001C0000
00380000
00380000
00000000
00000000
00700000
00700000
00E00000
00E00000
00E00000
01C00000
00000000
00000000
00000000
00000000
ENDCHAR
STARTCHAR U+00A5
ENCODING 165
SWIDTH 1000 0
DWIDTH 20 0
BBX 26 20 -3 -4
BITMAP
00000000
00000000
03803800
07007000
01C1C000
01C1C000
00EE0000
00EE0000
00380000
00700000
1FFFC000
1FFFC000
00E00000
00E00000
00E00000
01C00000
00000000
00000000
00000000
00000000
ENDCHAR
STARTCHAR U+00A8
ENCODING 168
SWIDTH 1000 0
DWIDTH 20 0
BBX 26 20 -3 -4
BITMAP
00E0E000
00E0E000
00000000
00000000
00000000
00000000
00000000
00000000
00000000
00000000
00000000
00000000
00000000
00000000
00000000
00000000
00000000
00000000
00000000
00000000
ENDCHAR
STARTCHAR U+00A2
ENCODING 162
SWIDTH 1000 0
DWIDTH 20 0
BBX 26 20 -3 -4
BITMAP
00000000
00000000
00000000
00000000
001C0000
001C0000
03FF8000
03FF8000
0E38E000
1C71C000
1C700000
1C700000
38E38000
38E38000
0FFE0000
1FFC0000
01C00000
01C00000
00000000
00000000
ENDCHAR
STARTCHAR U+00A1
ENCODING 161
SWIDTH 1000 0
DWIDTH 20 0
BBX 26 20 -3 -4
BITMAP
00000000
00000000
000E0000
001C0000
00000000
00000000
00380000
00380000
00380000
00700000
00700000
00700000
00E00000
00E00000
00E00000
01C00000
00000000
00000000
00000000
00000000
ENDCHAR
STARTCHAR U+201F
ENCODING 8223
SWIDTH 1000 0
DWIDTH 20 0
BBX 26 20 -3 -4
BITMAP
00000000
00000000
00FBE000
01F7C000
01C70000
01C70000
00E38000
00E38000
00000000
00000000
00000000
00000000
00000000
00000000
00000000
00000000
00000000
00000000
00000000
00000000
ENDCHAR
STARTCHAR U+201E
ENCODING 8222
SWIDTH 1000 0
DWIDTH 20 0
BBX 26 20 -3 -4
BITMAP
00000000
00000000
00000000
00000000
00000000
00000000
00000000
00000000
00000000
00000000
00000000
00000000
00000000
00000000
0E380000
1C700000
1C700000
1C700000
00000000
00000000
ENDCHAR
STARTCHAR U+201D
ENCODING 8221
SWIDTH 1000 0
DWIDTH 20 0
BBX 26 20 -3 -4
BITMAP
00000000
00000000
00F8F800
01F1F000
00707000
00707000
03838000
03838000
00000000
00000000
00000000
00000000
00000000
00000000
00000000
00000000
00000000
00000000
00000000
00000000
ENDCHAR
STARTCHAR U+201C
ENCODING 8220
SWIDTH 1000 0
DWIDTH 20 0
BBX 26 20 -3 -4
BITMAP
00000000
00000000
00383800
00707000
01C1C000
01C1C000
03E3E000
03E3E000
00000000
00000000
00000000
00000000
00000000
00000000
00000000
00000000
00000000
00000000
00000000
00000000
ENDCHAR
STARTCHAR U+201B
ENCODING 8219
SWIDTH 1000 0
DWIDTH 20 0
BBX 26 20 -3 -4
BITMAP
00000000
00000000
000E0000
001C0000
001C0000
001C0000
00380000
00380000
00000000
00000000
00000000
00000000
00000000
00000000
00000000
00000000
00000000
00000000
00000000
00000000
ENDCHAR
STARTCHAR U+201A
ENCODING 8218
SWIDTH 1000 0
DWIDTH 20 0
BBX 26 20 -3 -4
BITMAP
00000000
00000000
00000000
00000000
00000000
00000000
00000000
00000000
00000000
00000000
00700000
00700000
00E00000
00E00000
00E00000
01C00000
00000000
00000000
00000000
00000000
ENDCHAR
STARTCHAR U+2019
ENCODING 8217
SWIDTH 1000 0
DWIDTH 20 0
BBX 26 20 -3 -4
BITMAP
00000000
00000000
00F80000
01F00000
00700000
00700000
03800000
03800000
00000000
00000000
00000000
00000000
00000000
00000000
00000000
00000000
00000000
00000000
00000000
00000000
ENDCHAR
STARTCHAR U+2018
ENCODING 8216
SWIDTH 1000 0
DWIDTH 20 0
BBX 26 20 -3 -4
BITMAP
00000000
00000000
00003800
00007000
0001C000
0001C000
0003E000
0003E000
00000000
00000000
00000000
00000000
00000000
00000000
00000000
00000000
00000000
00000000
00000000
00000000
ENDCHAR
STARTCHAR U+2017
ENCODING 8215
SWIDTH 1000 0
DWIDTH 20 0
BBX 26 20 -3 -4
BITMAP
00000000
00000000
00000000
00000000
00000000
00000000
00000000
00000000
00000000
00000000
00000000
00000000
00000000
00000000
3FFF8000
7FFF0000
00000000
00000000
FFFE0000
FFFE0000
ENDCHAR
STARTCHAR U+2016
ENCODING 8214
SWIDTH 1000 0
DWIDTH 20 0
BBX 26 20 -3 -4
BITMAP
00000000
00000000
000EE000
001DC000
001DC000
001DC000
003B8000
003B8000
003B8000
00770000
00770000
00770000
00EE0000
00EE0000
00EE0000
01DC0000
00000000
00000000
00000000
00000000
ENDCHAR
STARTCHAR U+2015
ENCODING 8213
SWIDTH 1000 0
DWIDTH 20 0
BBX 26 20 -3 -4
BITMAP
00000000
00000000
00000000
00000000
00000000
00000000
00000000
00000000
0FFFFF00
1FFFFE00
00000000
00000000
00000000
00000000
00000000
00000000
00000000
00000000
00000000
00000000
ENDCHAR
STARTCHAR U+2014
ENCODING 8212
SWIDTH 1000 0
DWIDTH 20 0
BBX 26 20 -3 -4
BITMAP
00000000
00000000
00000000
00000000
00000000
00000000
00000000
00000000
0FFFE000
1FFFC000
00000000
00000000
00000000
00000000
00000000
00000000
00000000
00000000
00000000
00000000
ENDCHAR
STARTCHAR U+2013
ENCODING 8211
SWIDTH 1000 0
DWIDTH 20 0
BBX 26 20 -3 -4
BITMAP
00000000
00000000
00000000
00000000
00000000
00000000
00000000
00000000
00FF8000
01FF0000
00000000
00000000
00000000
00000000
00000000
00000000
00000000
00000000
00000000
00000000
ENDCHAR
STARTCHAR U+2012
ENCODING 8210
SWIDTH 1000 0
DWIDTH 20 0
BBX 26 20 -3 -4
BITMAP
00000000
00000000
00000000
00000000
00000000
00000000
00000000
00000000
03FF8000
07FF0000
00000000
00000000
00000000
00000000
00000000
00000000
00000000
00000000
00000000
00000000
ENDCHAR
STARTCHAR U+2011
ENCODING 8209
SWIDTH 1000 0
DWIDTH 20 0
BBX 26 20 -3 -4
BITMAP
00000000
00000000
00000000
00000000
00000000
00000000
00000000
00000000
00FE0000
01FC0000
00000000
00000000
00000000
00000000
00000000
00000000
00000000
00000000
00000000
00000000
ENDCHAR
STARTCHAR U+2010
ENCODING 8208
SWIDTH 1000 0
DWIDTH 20 0
BBX 26 20 -3 -4
BITMAP
00000000
00000000
00000000
00000000
00000000
00000000
00000000
00000000
00FE0000
01FC0000
00000000
00000000
00000000
00000000
00000000
00000000
00000000
00000000
00000000
00000000
ENDCHAR
STARTCHAR U+007F
ENCODING 127
SWIDTH 1000 0
DWIDTH 20 0
BBX 26 20 -3 -4
BITMAP
00000000
00000000
03F80000
07F00000
071C0000
071C0000
0E380000
0E380000
0E380000
1C700000
1FFC0000
1FFC0000
03800000
03800000
03800000
07000000
07000000
07000000
0E000000
0E000000
ENDCHAR
STARTCHAR U+007E
ENCODING 126
SWIDTH 1000 0
DWIDTH 20 0
BBX 26 20 -3 -4
BITMAP
00000000
00000000
00F83800
01F07000
071C7000
071C7000
0E0F8000
0E0F8000
00000000
00000000
00000000
00000000
00000000
00000000
00000000
00000000
00000000
00000000
00000000
00000000
ENDCHAR
STARTCHAR U+007D
ENCODING 125
SWIDTH 1000 0
DWIDTH 20 0
BBX 26 20 -3 -4
BITMAP
00000000
00000000
03F80000
07F00000
001C0000
001C0000
00E00000
00E00000
003E0000
007C0000
01C00000
01C00000
00E00000
00E00000
3F800000
7F000000
00000000
00000000
00000000
00000000
ENDCHAR
STARTCHAR U+007C
ENCODING 124
SWIDTH 1000 0
DWIDTH 20 0
BBX 26 20 -3 -4
BITMAP
00000000
00000000
000E0000
001C0000
001C0000
001C0000
00380000
00380000
00380000
00700000
00700000
00700000
00E00000
00E00000
00E00000
01C00000
00000000
00000000
00000000
00000000
ENDCHAR
STARTCHAR U+007B
ENCODING 123
SWIDTH 1000 0
DWIDTH 20 0
BBX 26 20 -3 -4
BITMAP
00000000
00000000
0003F800
0007F000
001C0000
001C0000
000E0000
000E0000
00F80000
01F00000
001C0000
001C0000
00E00000
00E00000
003F8000
007F0000
00000000
00000000
00000000
00000000
ENDCHAR
STARTCHAR U+007A
ENCODING 122
SWIDTH 1000 0
DWIDTH 20 0
BBX 26 20 -3 -4
BITMAP
00000000
00000000
00000000
00000000
00000000
00000000
0FFFE000
0FFFE000
00038000
00070000
007C0000
007C0000
03800000
03800000
3FFF8000
7FFF0000
00000000
00000000
00000000
00000000
ENDCHAR
STARTCHAR U+0079
ENCODING 121
SWIDTH 1000 0
DWIDTH 20 0
BBX 26 20 -3 -4
BITMAP
00000000
00000000
00000000
00000000
00000000
00000000
0E038000
0E038000
0E038000
1C070000
1C1F0000
1C1F0000
0FEE0000
0FEE0000
000E0000
001C0000
701C0000
701C0000
3FE00000
3FE00000
ENDCHAR
STARTCHAR U+0078
ENCODING 120
SWIDTH 1000 0
DWIDTH 20 0
BBX 26 20 -3 -4
BITMAP
00000000
00000000
00000000
00000000
00000000
00000000
0E038000
0E038000
038E0000
071C0000
01F00000
01F00000
0E380000
0E380000
380E0000
701C0000
00000000
00000000
00000000
00000000
ENDCHAR
STARTCHAR U+0077
ENCODING 119
SWIDTH 1000 0
DWIDTH 20 0
BBX 26 20 -3 -4
BITMAP
00000000
00000000
00000000
00000000
00000000
00000000
0E00E000
0E00E000
0E00E000
1C01C000
1C71C000
1C71C000
3BBB8000
3BBB8000
0E0E0000
1C1C0000
00000000
00000000
00000000
00000000
ENDCHAR
STARTCHAR U+0076
ENCODING 118
SWIDTH 1000 0
DWIDTH 20 0
BBX 26 20 -3 -4
BITMAP
00000000
00000000
00000000
00000000
00000000
00000000
0E00E000
0E00E000
0E00E000
1C01C000
07070000
07070000
03B80000
03B80000
00E00000
01C00000
00000000
00000000
00000000
00000000
ENDCHAR
STARTCHAR U+0075
ENCODING 117
SWIDTH 1000 0
DWIDTH 20 0
BBX 26 20 -3 -4
BITMAP
00000000
00000000
00000000
00000000
00000000
00000000
0E038000
0E038000
0E038000
1C070000
1C070000
1C070000
380E0000
380E0000
0FFB8000
1FF70000
00000000
00000000
00000000
00000000
ENDCHAR
STARTCHAR U+0074
ENCODING 116
SWIDTH 1000 0
DWIDTH 20 0
BBX 26 20 -3 -4
BITMAP
00000000
00000000
00380000
00700000
00700000
00700000
0FFE0000
0FFE0000
00E00000
01C00000
01C00000
01C00000
038E0000
038E0000
00F80000
01F00000
00000000
00000000
00000000
00000000
ENDCHAR
STARTCHAR U+0073
ENCODING 115
SWIDTH 1000 0
DWIDTH 20 0
BBX 26 20 -3 -4
BITMAP
00000000
00000000
00000000
00000000
00000000
00000000
03FF8000
03FF8000
0E000000
1C000000
07FF0000
07FF0000
00038000
00038000
3FFE0000
7FFC0000
00000000
00000000
00000000
00000000
ENDCHAR
STARTCHAR U+0072
ENCODING 114
SWIDTH 1000 0
DWIDTH 20 0
BBX 26 20 -3 -4
BITMAP
00000000
00000000
00000000
00000000
00000000
00000000
0E3F8000
0E3F8000
03E0E000
07C1C000
07000000
07000000
0E000000
0E000000
0E000000
1C000000
00000000
00000000
00000000
00000000
ENDCHAR
STARTCHAR U+0071
ENCODING 113
SWIDTH 1000 0
DWIDTH 20 0
BBX 26 20 -3 -4
BITMAP
00000000
00000000
00000000
00000000
00000000
00000000
03FEE000
03FEE000
0E03E000
1C07C000
1C07C000
1C07C000
0FFB8000
0FFB8000
00038000
00070000
00070000
00070000
000E0000
000E0000
ENDCHAR
STARTCHAR U+0070
ENCODING 112
SWIDTH 1000 0
DWIDTH 20 0
BBX 26 20 -3 -4
BITMAP
00000000
00000000
00000000
00000000
00000000
00000000
0EFF8000
0EFF8000
0F80E000
1F01C000
1F01C000
1F01C000
3BFE0000
3BFE0000
38000000
70000000
70000000
70000000
E0000000
E0000000
ENDCHAR
STARTCHAR U+006f
ENCODING 111
SWIDTH 1000 0
DWIDTH 20 0
BBX 26 20 -3 -4
BITMAP
00000000
00000000
00000000
00000000
00000000
00000000
03FF8000
03FF8000
0E00E000
1C01C000
1C01C000
1C01C000
38038000
38038000
0FFE0000
1FFC0000
00000000
00000000
00000000
00000000
ENDCHAR
STARTCHAR U+006e
ENCODING 110
SWIDTH 1000 0
DWIDTH 20 0
BBX 26 20 -3 -4
BITMAP
00000000
00000000
00000000
00000000
00000000
00000000
0EFF8000
0EFF8000
0F80E000
1F01C000
1C01C000
1C01C000
38038000
38038000
38038000
70070000
00000000
00000000
00000000
00000000
ENDCHAR
STARTCHAR U+006d
ENCODING 109
SWIDTH 1000 0
DWIDTH 20 0
BBX 26 20 -3 -4
BITMAP
00000000
00000000
00000000
00000000
00000000
00000000
0F838000
0F838000
0EEEE000
1DDDC000
1C71C000
1C71C000
38E38000
38E38000
38038000
70070000
00000000
00000000
00000000
00000000
ENDCHAR
STARTCHAR U+006c
ENCODING 108
SWIDTH 1000 0
DWIDTH 20 0
BBX 26 20 -3 -4
BITMAP
00000000
00000000
003E0000
007C0000
001C0000
001C0000
00380000
00380000
00380000
00700000
00700000
00700000
00E00000
00E00000
03F80000
07F00000
00000000
00000000
00000000
00000000
ENDCHAR
STARTCHAR U+006b
ENCODING 107
SWIDTH 1000 0
DWIDTH 20 0
BBX 26 20 -3 -4
BITMAP
00000000
00000000
03800000
07000000
07000000
07000000
0E0E0000
0E0E0000
0E380000
1C700000
1FC00000
1FC00000
38380000
38380000
38038000
70070000
00000000
00000000
00000000
00000000
ENDCHAR
STARTCHAR U+006a
ENCODING 106
SWIDTH 1000 0
DWIDTH 20 0
BBX 26 20 -3 -4
BITMAP
00000000
00000000
0000E000
0001C000
00000000
00000000
00038000
00038000
00038000
00070000
00070000
00070000
000E0000
000E0000
380E0000
701C0000
701C0000
701C0000
3FE00000
3FE00000
ENDCHAR
STARTCHAR U+0069
ENCODING 105
SWIDTH 1000 0
DWIDTH 20 0
BBX 26 20 -3 -4
BITMAP
00000000
00000000
000E0000
001C0000
00000000
00000000
00F80000
00F80000
00380000
00700000
00700000
00700000
00E00000
00E00000
0FFE0000
1FFC0000
00000000
00000000
00000000
00000000
ENDCHAR
STARTCHAR U+0068
ENCODING 104
SWIDTH 1000 0
DWIDTH 20 0
BBX 26 20 -3 -4
BITMAP
00000000
00000000
03800000
07000000
07000000
07000000
0EFF8000
0EFF8000
0F80E000
1F01C000
1C01C000
1C01C000
38038000
38038000
38038000
70070000
00000000
00000000
00000000
00000000
ENDCHAR
STARTCHAR U+0067
ENCODING 103
SWIDTH 1000 0
DWIDTH 20 0
BBX 26 20 -3 -4
BITMAP
00000000
00000000
00000000
00000000
00000000
00000000
03FEE000
03FEE000
0E038000
1C070000
07FC0000
07FC0000
38000000
38000000
0FFE0000
1FFC0000
70070000
70070000
3FF80000
3FF80000
ENDCHAR
STARTCHAR U+0066
ENCODING 102
SWIDTH 1000 0
DWIDTH 20 0
BBX 26 20 -3 -4
BITMAP
00000000
00000000
000FE000
001FC000
00707000
00707000
00E00000
00E00000
0FFE0000
1FFC0000
01C00000
01C00000
03800000
03800000
03800000
07000000
00000000
00000000
00000000
00000000
ENDCHAR
STARTCHAR U+0065
ENCODING 101
SWIDTH 1000 0
DWIDTH 20 0
BBX 26 20 -3 -4
BITMAP
00000000
00000000
00000000
00000000
00000000
00000000
03FF8000
03FF8000
0E00E000
1C01C000
1FFFC000
1FFFC000
38000000
38000000
0FFE0000
1FFC0000
00000000
00000000
00000000
00000000
ENDCHAR
STARTCHAR U+0064
ENCODING 100
SWIDTH 1000 0
DWIDTH 20 0
BBX 26 20 -3 -4
BITMAP
00000000
00000000
00003800
00007000
00007000
00007000
03FEE000
03FEE000
0E03E000
1C07C000
1C01C000
1C01C000
380F8000
380F8000
0FFB8000
1FF70000
00000000
00000000
00000000
00000000
ENDCHAR
STARTCHAR U+0063
ENCODING 99
SWIDTH 1000 0
DWIDTH 20 0
BBX 26 20 -3 -4
BITMAP
00000000
00000000
00000000
00000000
00000000
00000000
03FF8000
03FF8000
0E00E000
1C01C000
1C000000
1C000000
38000000
38000000
0FFF8000
1FFF0000
00000000
00000000
00000000
00000000
ENDCHAR
STARTCHAR U+0062
ENCODING 98
SWIDTH 1000 0
DWIDTH 20 0
BBX 26 20 -3 -4
BITMAP
00000000
00000000
03800000
07000000
07000000
07000000
0EFF8000
0EFF8000
0F80E000
1F01C000
1C01C000
1C01C000
3E038000
3E038000
3BFE0000
77FC0000
00000000
00000000
00000000
00000000
ENDCHAR
STARTCHAR U+0061
ENCODING 97
SWIDTH 1000 0
DWIDTH 20 0
BBX 26 20 -3 -4
BITMAP
00000000
00000000
00000000
00000000
00000000
00000000
03FF8000
03FF8000
0000E000
0001C000
07FFC000
07FFC000
380F8000
380F8000
0FFB8000
1FF70000
00000000
00000000
00000000
00000000
ENDCHAR
STARTCHAR U+0060
ENCODING 96
SWIDTH 1000 0
DWIDTH 20 0
BBX 26 20 -3 -4
BITMAP
00000000
00000000
003E0000
007C0000
001C0000
001C0000
000E0000
000E0000
00000000
00000000
00000000
00000000
00000000
00000000
00000000
00000000
00000000
00000000
00000000
00000000
ENDCHAR
STARTCHAR U+005F
ENCODING 95
SWIDTH 1000 0
DWIDTH 20 0
BBX 26 20 -3 -4
BITMAP
00000000
00000000
00000000
00000000
00000000
00000000
00000000
00000000
00000000
00000000
00000000
00000000
00000000
00000000
3FFF8000
7FFF0000
00000000
00000000
00000000
00000000
ENDCHAR
STARTCHAR U+005E
ENCODING 94
SWIDTH 1000 0
DWIDTH 20 0
BBX 26 20 -3 -4
BITMAP
00000000
00000000
000E0000
001C0000
00770000
00770000
03838000
03838000
0E00E000
1C01C000
00000000
00000000
00000000
00000000
00000000
00000000
00000000
00000000
00000000
00000000
ENDCHAR
STARTCHAR U+005D
ENCODING 93
SWIDTH 1000 0
DWIDTH 20 0
BBX 26 20 -3 -4
BITMAP
00000000
00000000
00FF8000
01FF0000
00070000
00070000
000E0000
000E0000
000E0000
001C0000
001C0000
001C0000
00380000
00380000
0FF80000
1FF00000
00000000
00000000
00000000
00000000
ENDCHAR
STARTCHAR U+005C
ENCODING 92
SWIDTH 1000 0
DWIDTH 20 0
BBX 26 20 -3 -4
BITMAP
00000000
00000000
03800000
07000000
01C00000
01C00000
00E00000
00E00000
00380000
00700000
001C0000
001C0000
000E0000
000E0000
00038000
00070000
00000000
00000000
00000000
00000000
ENDCHAR
STARTCHAR U+005B
ENCODING 91
SWIDTH 1000 0
DWIDTH 20 0
BBX 26 20 -3 -4
BITMAP
00000000
00000000
003FE000
007FC000
00700000
00700000
00E00000
00E00000
00E00000
01C00000
01C00000
01C00000
03800000
03800000
03FE0000
07FC0000
00000000
00000000
00000000
00000000
ENDCHAR
STARTCHAR U+005A
ENCODING 90
SWIDTH 1000 0
DWIDTH 20 0
BBX 26 20 -3 -4
BITMAP
00000000
00000000
03FFF800
07FFF000
0001C000
0001C000
000E0000
000E0000
00380000
00700000
01C00000
01C00000
0E000000
0E000000
3FFF8000
7FFF0000
00000000
00000000
00000000
00000000
ENDCHAR
STARTCHAR U+0059
ENCODING 89
SWIDTH 1000 0
DWIDTH 20 0
BBX 26 20 -3 -4
BITMAP
00000000
00000000
03803800
07007000
01C1C000
01C1C000
00EE0000
00EE0000
00380000
00700000
00700000
00700000
00E00000
00E00000
00E00000
01C00000
00000000
00000000
00000000
00000000
ENDCHAR
STARTCHAR U+0058
ENCODING 88
SWIDTH 1000 0
DWIDTH 20 0
BBX 26 20 -3 -4
BITMAP
00000000
00000000
03803800
07007000
01C1C000
01C1C000
00EE0000
00EE0000
00380000
00700000
01DC0000
01DC0000
0E0E0000
0E0E0000
38038000
70070000
00000000
00000000
00000000
00000000
ENDCHAR
STARTCHAR U+0057
ENCODING 87
SWIDTH 1000 0
DWIDTH 20 0
BBX 26 20 -3 -4
BITMAP
00000000
00000000
03803800
07007000
07007000
07007000
0E00E000
0E00E000
0E38E000
1C71C000
1C71C000
1C71C000
3BBB8000
3BBB8000
0E0E0000
1C1C0000
00000000
00000000
00000000
00000000
ENDCHAR
STARTCHAR U+0056
ENCODING 86
SWIDTH 1000 0
DWIDTH 20 0
BBX 26 20 -3 -4
BITMAP
00000000
00000000
03803800
07007000
07007000
07007000
03838000
03838000
03838000
07070000
01DC0000
01DC0000
03B80000
03B80000
00E00000
01C00000
00000000
00000000
00000000
00000000
ENDCHAR
STARTCHAR U+0055
ENCODING 85
SWIDTH 1000 0
DWIDTH 20 0
BBX 26 20 -3 -4
BITMAP
00000000
00000000
03803800
07007000
07007000
07007000
0E00E000
0E00E000
0E00E000
1C01C000
1C01C000
1C01C000
38038000
38038000
0FFE0000
1FFC0000
00000000
00000000
00000000
00000000
ENDCHAR
STARTCHAR U+0054
ENCODING 84
SWIDTH 1000 0
DWIDTH 20 0
BBX 26 20 -3 -4
BITMAP
00000000
00000000
03FFF800
07FFF000
001C0000
001C0000
00380000
00380000
00380000
00700000
00700000
00700000
00E00000
00E00000
00E00000
01C00000
00000000
00000000
00000000
00000000
ENDCHAR
STARTCHAR U+0053
ENCODING 83
SWIDTH 1000 0
DWIDTH 20 0
BBX 26 20 -3 -4
BITMAP
00000000
00000000
00FFE000
01FFC000
07007000
07007000
0E000000
0E000000
03FF8000
07FF0000
0001C000
0001C000
38038000
38038000
0FFE0000
1FFC0000
00000000
00000000
00000000
00000000
ENDCHAR
STARTCHAR U+0052
ENCODING 82
SWIDTH 1000 0
DWIDTH 20 0
BBX 26 20 -3 -4
BITMAP
00000000
00000000
03FFE000
07FFC000
07007000
07007000
0E00E000
0E00E000
0FFF8000
1FFF0000
1C1C0000
1C1C0000
380E0000
380E0000
38038000
70070000
00000000
00000000
00000000
00000000
ENDCHAR
STARTCHAR U+0051
ENCODING 81
SWIDTH 1000 0
DWIDTH 20 0
BBX 26 20 -3 -4
BITMAP
00000000
00000000
00FFE000
01FFC000
07007000
07007000
0E00E000
0E00E000
0E00E000
1C01C000
1C1DC000
1C1DC000
380E0000
380E0000
0FFB8000
1FF70000
00000000
00000000
00000000
00000000
ENDCHAR
STARTCHAR U+0050
ENCODING 80
SWIDTH 1000 0
DWIDTH 20 0
BBX 26 20 -3 -4
BITMAP
00000000
00000000
03FFE000
07FFC000
07007000
07007000
0E00E000
0E00E000
0FFF8000
1FFF0000
1C000000
1C000000
38000000
38000000
38000000
70000000
00000000
00000000
00000000
00000000
ENDCHAR
STARTCHAR U+004F
ENCODING 79
SWIDTH 1000 0
DWIDTH 20 0
BBX 26 20 -3 -4
BITMAP
00000000
00000000
00FFE000
01FFC000
07007000
07007000
0E00E000
0E00E000
0E00E000
1C01C000
1C01C000
1C01C000
38038000
38038000
0FFE0000
1FFC0000
00000000
00000000
00000000
00000000
ENDCHAR
STARTCHAR U+004E
ENCODING 78
SWIDTH 1000 0
DWIDTH 20 0
BBX 26 20 -3 -4
BITMAP
00000000
00000000
03803800
07007000
07C07000
07C07000
0EE0E000
0EE0E000
0E38E000
1C71C000
1C1DC000
1C1DC000
380F8000
380F8000
38038000
70070000
00000000
00000000
00000000
00000000
ENDCHAR
STARTCHAR U+004D
ENCODING 77
SWIDTH 1000 0
DWIDTH 20 0
BBX 26 20 -3 -4
BITMAP
00000000
00000000
03803800
07007000
07C1F000
07C1F000
0EEEE000
0EEEE000
0E38E000
1C71C000
1C01C000
1C01C000
38038000
38038000
38038000
70070000
00000000
00000000
00000000
00000000
ENDCHAR
STARTCHAR U+004C
ENCODING 76
SWIDTH 1000 0
DWIDTH 20 0
BBX 26 20 -3 -4
BITMAP
00000000
00000000
03800000
07000000
07000000
07000000
0E000000
0E000000
0E000000
1C000000
1C000000
1C000000
38000000
38000000
3FFF8000
7FFF0000
00000000
00000000
00000000
00000000
ENDCHAR
STARTCHAR U+004B
ENCODING 75
SWIDTH 1000 0
DWIDTH 20 0
BBX 26 20 -3 -4
BITMAP
00000000
00000000
03803800
07007000
0707C000
0707C000
0EF80000
0EF80000
0F800000
1F000000
1DF00000
1DF00000
383E0000
383E0000
38038000
70070000
00000000
00000000
00000000
00000000
ENDCHAR
STARTCHAR U+004A
ENCODING 74
SWIDTH 1000 0
DWIDTH 20 0
BBX 26 20 -3 -4
BITMAP
00000000
00000000
0003F800
0007F000
0001C000
0001C000
00038000
00038000
00038000
00070000
00070000
00070000
380E0000
380E0000
0FF80000
1FF00000
00000000
00000000
00000000
00000000
ENDCHAR
STARTCHAR U+0049
ENCODING 73
SWIDTH 1000 0
DWIDTH 20 0
BBX 26 20 -3 -4
BITMAP
00000000
00000000
00FFE000
01FFC000
001C0000
001C0000
00380000
00380000
00380000
00700000
00700000
00700000
00E00000
00E00000
0FFE0000
1FFC0000
00000000
00000000
00000000
00000000
ENDCHAR
STARTCHAR U+0048
ENCODING 72
SWIDTH 1000 0
DWIDTH 20 0
BBX 26 20 -3 -4
BITMAP
00000000
00000000
03803800
07007000
07007000
07007000
0E00E000
0E00E000
0FFFE000
1FFFC000
1C01C000
1C01C000
38038000
38038000
38038000
70070000
00000000
00000000
00000000
00000000
ENDCHAR
STARTCHAR U+0047
ENCODING 71
SWIDTH 1000 0
DWIDTH 20 0
BBX 26 20 -3 -4
BITMAP
00000000
00000000
003FE000
007FC000
01C07000
01C07000
0E000000
0E000000
0E000000
1C000000
1C1FC000
1C1FC000
0E038000
0E038000
03FE0000
07FC0000
00000000
00000000
00000000
00000000
ENDCHAR
STARTCHAR U+0046
ENCODING 70
SWIDTH 1000 0
DWIDTH 20 0
BBX 26 20 -3 -4
BITMAP
00000000
00000000
03FFF800
07FFF000
07000000
07000000
0E000000
0E000000
0FFE0000
1FFC0000
1C000000
1C000000
38000000
38000000
38000000
70000000
00000000
00000000
00000000
00000000
ENDCHAR
STARTCHAR U+0045
ENCODING 69
SWIDTH 1000 0
DWIDTH 20 0
BBX 26 20 -3 -4
BITMAP
00000000
00000000
03FFF800
07FFF000
07000000
07000000
0E000000
0E000000
0FFE0000
1FFC0000
1C000000
1C000000
38000000
38000000
3FFF8000
7FFF0000
00000000
00000000
00000000
00000000
ENDCHAR
STARTCHAR U+0044
ENCODING 68
SWIDTH 1000 0
DWIDTH 20 0
BBX 26 20 -3 -4
BITMAP
00000000
00000000
03FF8000
07FF0000
01C1C000
01C1C000
0380E000
0380E000
0380E000
0701C000
0701C000
0701C000
0E0E0000
0E0E0000
3FF80000
7FF00000
00000000
00000000
00000000
00000000
ENDCHAR
STARTCHAR U+0043
ENCODING 67
SWIDTH 1000 0
DWIDTH 20 0
BBX 26 20 -3 -4
BITMAP
00000000
00000000
003FE000
007FC000
01C07000
01C07000
0E000000
0E000000
0E000000
1C000000
1C000000
1C000000
0E038000
0E038000
03FE0000
07FC0000
00000000
00000000
00000000
00000000
ENDCHAR
STARTCHAR U+0042
ENCODING 66
SWIDTH 1000 0
DWIDTH 20 0
BBX 26 20 -3 -4
BITMAP
00000000
00000000
03FFE000
07FFC000
01C07000
01C07000
0380E000
0380E000
03FF8000
07FF0000
0701C000
0701C000
0E038000
0E038000
3FFE0000
7FFC0000
00000000
00000000
00000000
00000000
ENDCHAR
STARTCHAR U+0041
ENCODING 65
SWIDTH 1000 0
DWIDTH 20 0
BBX 26 20 -3 -4
BITMAP
00000000
00000000
000E0000
001C0000
00770000
00770000
03838000
03838000
0E00E000
1C01C000
1FFFC000
1FFFC000
38038000
38038000
38038000
70070000
00000000
00000000
00000000
00000000
ENDCHAR
STARTCHAR U+0040
ENCODING 64
SWIDTH 1000 0
DWIDTH 20 0
BBX 26 20 -3 -4
BITMAP
00000000
00000000
00FFE000
01FFC000
07007000
07007000
0E3FE000
0E3FE000
0EE3E000
1DC7C000
1C7DC000
1C7DC000
38000000
38000000
0FFE0000
1FFC0000
00000000
00000000
00000000
00000000
ENDCHAR
STARTCHAR U+003F
ENCODING 63
SWIDTH 1000 0
DWIDTH 20 0
BBX 26 20 -3 -4
BITMAP
00000000
00000000
00FFE000
01FFC000
07007000
07007000
000F8000
000F8000
00380000
00700000
00700000
00700000
00000000
00000000
00E00000
01C00000
00000000
00000000
00000000
00000000
ENDCHAR
STARTCHAR U+003E
ENCODING 62
SWIDTH 1000 0
DWIDTH 20 0
BBX 26 20 -3 -4
BITMAP
00000000
00000000
03800000
07000000
00700000
00700000
000E0000
000E0000
0000E000
0001C000
001C0000
001C0000
03800000
03800000
38000000
70000000
00000000
00000000
00000000
00000000
ENDCHAR
STARTCHAR U+003D
ENCODING 61
SWIDTH 1000 0
DWIDTH 20 0
BBX 26 20 -3 -4
BITMAP
00000000
00000000
00000000
00000000
00000000
00000000
0FFFE000
0FFFE000
00000000
00000000
1FFFC000
1FFFC000
00000000
00000000
00000000
00000000
00000000
00000000
00000000
00000000
ENDCHAR
STARTCHAR U+003C
ENCODING 60
SWIDTH 1000 0
DWIDTH 20 0
BBX 26 20 -3 -4
BITMAP
00000000
00000000
00003800
00007000
00070000
00070000
00E00000
00E00000
0E000000
1C000000
01C00000
01C00000
00380000
00380000
00038000
00070000
00000000
00000000
00000000
00000000
ENDCHAR
STARTCHAR U+003B
ENCODING 59
SWIDTH 1000 0
DWIDTH 20 0
BBX 26 20 -3 -4
BITMAP
00000000
00000000
00000000
00000000
007C0000
007C0000
00F80000
00F80000
00000000
00000000
00000000
00000000
03E00000
03E00000
03800000
07000000
1C000000
1C000000
00000000
00000000
ENDCHAR
STARTCHAR U+003A
ENCODING 58
SWIDTH 1000 0
DWIDTH 20 0
BBX 26 20 -3 -4
BITMAP
00000000
00000000
00000000
00000000
007C0000
007C0000
00F80000
00F80000
00000000
00000000
00000000
00000000
03E00000
03E00000
03E00000
07C00000
00000000
00000000
00000000
00000000
ENDCHAR
STARTCHAR U+0039
ENCODING 57
SWIDTH 1000 0
DWIDTH 20 0
BBX 26 20 -3 -4
BITMAP
00000000
00000000
00FFE000
01FFC000
07007000
07007000
0E03E000
0E03E000
03FEE000
07FDC000
0001C000
0001C000
000E0000
000E0000
0FF80000
1FF00000
00000000
00000000
00000000
00000000
ENDCHAR
STARTCHAR U+0038
ENCODING 56
SWIDTH 1000 0
DWIDTH 20 0
BBX 26 20 -3 -4
BITMAP
00000000
00000000
00FFE000
01FFC000
07007000
07007000
0E00E000
0E00E000
03FF8000
07FF0000
1C01C000
1C01C000
38038000
38038000
0FFE0000
1FFC0000
00000000
00000000
00000000
00000000
ENDCHAR
STARTCHAR U+0037
ENCODING 55
SWIDTH 1000 0
DWIDTH 20 0
BBX 26 20 -3 -4
BITMAP
00000000
00000000
03FFF800
07FFF000
00007000
00007000
00038000
00038000
000E0000
001C0000
00700000
00700000
03800000
03800000
03800000
07000000
00000000
00000000
00000000
00000000
ENDCHAR
STARTCHAR U+0036
ENCODING 54
SWIDTH 1000 0
DWIDTH 20 0
BBX 26 20 -3 -4
BITMAP
00000000
00000000
003FE000
007FC000
01C00000
01C00000
0E000000
0E000000
0EFF8000
1DFF0000
1F01C000
1F01C000
38038000
38038000
0FFE0000
1FFC0000
00000000
00000000
00000000
00000000
ENDCHAR
STARTCHAR U+0035
ENCODING 53
SWIDTH 1000 0
DWIDTH 20 0
BBX 26 20 -3 -4
BITMAP
00000000
00000000
03FFF800
07FFF000
07000000
07000000
0EFF8000
0EFF8000
0F80E000
1F01C000
0001C000
0001C000
38038000
38038000
0FFE0000
1FFC0000
00000000
00000000
00000000
00000000
ENDCHAR
STARTCHAR U+0034
ENCODING 52
SWIDTH 1000 0
DWIDTH 20 0
BBX 26 20 -3 -4
BITMAP
00000000
00000000
00038000
00070000
001F0000
001F0000
00EE0000
00EE0000
038E0000
071C0000
1FFFC000
1FFFC000
00380000
00380000
00380000
00700000
00000000
00000000
00000000
00000000
ENDCHAR
STARTCHAR U+0033
ENCODING 51
SWIDTH 1000 0
DWIDTH 20 0
BBX 26 20 -3 -4
BITMAP
00000000
00000000
03FFF800
07FFF000
0001C000
0001C000
000E0000
000E0000
003F8000
007F0000
0001C000
0001C000
38038000
38038000
0FFE0000
1FFC0000
00000000
00000000
00000000
00000000
ENDCHAR
STARTCHAR U+0032
ENCODING 50
SWIDTH 1000 0
DWIDTH 20 0
BBX 26 20 -3 -4
BITMAP
00000000
00000000
00FFE000
01FFC000
07007000
07007000
0000E000
0000E000
003F8000
007F0000
07C00000
07C00000
38000000
38000000
3FFF8000
7FFF0000
00000000
00000000
00000000
00000000
ENDCHAR
STARTCHAR U+0031
ENCODING 49
SWIDTH 1000 0
DWIDTH 20 0
BBX 26 20 -3 -4
BITMAP
00000000
00000000
000E0000
001C0000
007C0000
007C0000
03B80000
03B80000
00380000
00700000
00700000
00700000
00E00000
00E00000
0FFE0000
1FFC0000
00000000
00000000
00000000
00000000
ENDCHAR
STARTCHAR U+0030
ENCODING 48
SWIDTH 1000 0
DWIDTH 20 0
BBX 26 20 -3 -4
BITMAP
00000000
00000000
003F8000
007F0000
01C1C000
01C1C000
0E00E000
0E00E000
0E00E000
1C01C000
1C01C000
1C01C000
0E0E0000
0E0E0000
03F80000
07F00000
00000000
00000000
00000000
00000000
ENDCHAR
STARTCHAR U+002F
ENCODING 47
SWIDTH 1000 0
DWIDTH 20 0
BBX 26 20 -3 -4
BITMAP
00000000
00000000
00003800
00007000
0001C000
0001C000
000E0000
000E0000
00380000
00700000
01C00000
01C00000
0E000000
0E000000
38000000
70000000
00000000
00000000
00000000
00000000
ENDCHAR
STARTCHAR U+002E
ENCODING 46
SWIDTH 1000 0
DWIDTH 20 0
BBX 26 20 -3 -4
BITMAP
00000000
00000000
00000000
00000000
00000000
00000000
00000000
00000000
00000000
00000000
00000000
00000000
03E00000
03E00000
03E00000
07C00000
00000000
00000000
00000000
00000000
ENDCHAR
STARTCHAR U+002D
ENCODING 45
SWIDTH 1000 0
DWIDTH 20 0
BBX 26 20 -3 -4
BITMAP
00000000
00000000
00000000
00000000
00000000
00000000
00000000
00000000
0FFFE000
1FFFC000
00000000
00000000
00000000
00000000
00000000
00000000
00000000
00000000
00000000
00000000
ENDCHAR
STARTCHAR U+002C
ENCODING 44
SWIDTH 1000 0
DWIDTH 20 0
BBX 26 20 -3 -4
BITMAP
00000000
00000000
00000000
00000000
00000000
00000000
00000000
00000000
00000000
00000000
00000000
00000000
03E00000
03E00000
03800000
07000000
1C000000
1C000000
00000000
00000000
ENDCHAR
STARTCHAR U+002B
ENCODING 43
SWIDTH 1000 0
DWIDTH 20 0
BBX 26 20 -3 -4
BITMAP
00000000
00000000
00000000
00000000
001C0000
001C0000
00380000
00380000
0FFFE000
1FFFC000
00700000
00700000
00E00000
00E00000
00000000
00000000
00000000
00000000
00000000
00000000
ENDCHAR
STARTCHAR U+002A
ENCODING 42
SWIDTH 1000 0
DWIDTH 20 0
BBX 26 20 -3 -4
BITMAP
00000000
00000000
00000000
00000000
01C1C000
01C1C000
00EE0000
00EE0000
0FFFE000
1FFFC000
01DC0000
01DC0000
0E0E0000
0E0E0000
00000000
00000000
00000000
00000000
00000000
00000000
ENDCHAR
STARTCHAR U+0029
ENCODING 41
SWIDTH 1000 0
DWIDTH 20 0
BBX 26 20 -3 -4
BITMAP
00000000
00000000
00380000
00700000
001C0000
001C0000
000E0000
000E0000
000E0000
001C0000
001C0000
001C0000
00E00000
00E00000
03800000
07000000
00000000
00000000
00000000
00000000
ENDCHAR
STARTCHAR U+0028
ENCODING 40
SWIDTH 1000 0
DWIDTH 20 0
BBX 26 20 -3 -4
BITMAP
00000000
00000000
00038000
00070000
001C0000
001C0000
00E00000
00E00000
00E00000
01C00000
01C00000
01C00000
00E00000
00E00000
00380000
00700000
00000000
00000000
00000000
00000000
ENDCHAR
STARTCHAR U+0027
ENCODING 39
SWIDTH 1000 0
DWIDTH 20 0
BBX 26 20 -3 -4
BITMAP
00000000
00000000
000F8000
001F0000
001C0000
001C0000
00E00000
00E00000
00000000
00000000
00000000
00000000
00000000
00000000
00000000
00000000
00000000
00000000
00000000
00000000
ENDCHAR
STARTCHAR U+0026
ENCODING 38
SWIDTH 1000 0
DWIDTH 20 0
BBX 26 20 -3 -4
BITMAP
00000000
00000000
00FE0000
01FC0000
07070000
07070000
0E0E0000
0E0E0000
03F80000
07F00000
1C1DC000
1C1DC000
380E0000
380E0000
0FFB8000
1FF70000
00000000
00000000
00000000
00000000
ENDCHAR
STARTCHAR U+0025
ENCODING 37
SWIDTH 1000 0
DWIDTH 20 0
BBX 26 20 -3 -4
BITMAP
00000000
00000000
00E03800
01C07000
0771C000
0771C000
038E0000
038E0000
00380000
00700000
01C70000
01C70000
0E3B8000
0E3B8000
380E0000
701C0000
00000000
00000000
00000000
00000000
ENDCHAR
STARTCHAR U+0024
ENCODING 36
SWIDTH 1000 0
DWIDTH 20 0
BBX 26 20 -3 -4
BITMAP
00000000
00000000
000E0000
001C0000
01FFC000
01FFC000
0E380000
0E380000
03FF8000
07FF0000
0071C000
0071C000
0FFE0000
0FFE0000
00E00000
01C00000
00000000
00000000
00000000
00000000
ENDCHAR
STARTCHAR U+0023
ENCODING 35
SWIDTH 1000 0
DWIDTH 20 0
BBX 26 20 -3 -4
BITMAP
00000000
00000000
00E38000
01C70000
01C70000
01C70000
0FFF8000
0FFF8000
038E0000
071C0000
1FFF0000
1FFF0000
0E380000
0E380000
0E380000
1C700000
00000000
00000000
00000000
00000000
ENDCHAR
STARTCHAR U+0022
ENCODING 34
SWIDTH 1000 0
DWIDTH 20 0
BBX 26 20 -3 -4
BITMAP
00000000
00000000
00E38000
01C70000
01C70000
01C70000
038E0000
038E0000
00000000
00000000
00000000
00000000
00000000
00000000
00000000
00000000
00000000
00000000
00000000
00000000
ENDCHAR
STARTCHAR U+0021
ENCODING 33
SWIDTH 1000 0
DWIDTH 20 0
BBX 26 20 -3 -4
BITMAP
00000000
00000000
000E0000
001C0000
001C0000
001C0000
00380000
00380000
00380000
00700000
00700000
00700000
00000000
00000000
00E00000
01C00000
00000000
00000000
00000000
00000000
ENDCHAR
STARTCHAR U+2E2E
ENCODING 11822
SWIDTH 1000 0
DWIDTH 20 0
BBX 26 20 -3 -4
BITMAP
00000000
00000000
00FFE000
01FFC000
07007000
07007000
03E00000
03E00000
00380000
00700000
00700000
00700000
00000000
00000000
00E00000
01C00000
00000000
00000000
00000000
00000000
ENDCHAR
STARTCHAR U+00b7
ENCODING 183
SWIDTH 1000 0
DWIDTH 20 0
BBX 26 20 -3 -4
BITMAP
00000000
00000000
00000000
00000000
00000000
00000000
00000000
00000000
00380000
00700000
00000000
00000000
00000000
00000000
00000000
00000000
00000000
00000000
00000000
00000000
ENDCHAR
STARTCHAR U+00A3
ENCODING 163
SWIDTH 1000 0
DWIDTH 20 0
BBX 26 20 -3 -4
BITMAP
00000000
00000000
000FE000
001FC000
00707000
00707000
00E00000
00E00000
0FFE0000
1FFC0000
01C00000
01C00000
0FF80000
0FF80000
3B8F8000
771F0000
1C000000
1C000000
00000000
00000000
ENDCHAR
STARTCHAR U+2260
ENCODING 8800
SWIDTH 1000 0
DWIDTH 20 0
BBX 26 20 -3 -4
BITMAP
00000000
00000000
00003800
00007000
0001C000
0001C000
0FFFE000
0FFFE000
00380000
00700000
1FFFC000
1FFFC000
0E000000
0E000000
38000000
70000000
00000000
00000000
00000000
00000000
ENDCHAR
STARTCHAR U+03C0
ENCODING 960
SWIDTH 1000 0
DWIDTH 20 0
BBX 26 20 -3 -4
BITMAP
00000000
00000000
00000000
00000000
00000000
00000000
0FFFE000
0FFFE000
00E38000
01C70000
01C70000
01C70000
038E0000
038E0000
0E0E0000
1C1C0000
00000000
00000000
00000000
00000000
ENDCHAR
STARTCHAR U+2265
ENCODING 8805
SWIDTH 1000 0
DWIDTH 20 0
BBX 26 20 -3 -4
BITMAP
00000000
00000000
03800000
07000000
00700000
00700000
000E0000
000E0000
0000E000
0001C000
001C0000
001C0000
03800000
03800000
38000000
70000000
7FFF0000
7FFF0000
00000000
00000000
ENDCHAR
STARTCHAR U+2264
ENCODING 8804
SWIDTH 1000 0
DWIDTH 20 0
BBX 26 20 -3 -4
BITMAP
00000000
00000000
00003800
00007000
00070000
00070000
00E00000
00E00000
0E000000
1C000000
01C00000
01C00000
00380000
00380000
00038000
00070000
7FFF0000
7FFF0000
00000000
00000000
ENDCHAR
STARTCHAR U+2502
ENCODING 9474
SWIDTH 1000 0
DWIDTH 20 0
BBX 26 20 -3 -4
BITMAP
000E0000
000E0000
000E0000
001C0000
001C0000
001C0000
00380000
00380000
00380000
00700000
00700000
00700000
00E00000
00E00000
00E00000
01C00000
01C00000
01C00000
03800000
03800000
ENDCHAR
STARTCHAR U+252C
ENCODING 9516
SWIDTH 1000 0
DWIDTH 20 0
BBX 26 20 -3 -4
BITMAP
00000000
00000000
00000000
00000000
00000000
00000000
00000000
00000000
0FFFFF00
1FFFFE00
00700000
00700000
00E00000
00E00000
00E00000
01C00000
01C00000
01C00000
03800000
03800000
ENDCHAR
STARTCHAR U+2534
ENCODING 9524
SWIDTH 1000 0
DWIDTH 20 0
BBX 26 20 -3 -4
BITMAP
000E0000
000E0000
000E0000
001C0000
001C0000
001C0000
00380000
00380000
0FFFFF00
1FFFFE00
00000000
00000000
00000000
00000000
00000000
00000000
00000000
00000000
00000000
00000000
ENDCHAR
STARTCHAR U+2524
ENCODING 9508
SWIDTH 1000 0
DWIDTH 20 0
BBX 26 20 -3 -4
BITMAP
000E0000
000E0000
000E0000
001C0000
001C0000
001C0000
00380000
00380000
0FF80000
1FF00000
00700000
00700000
00E00000
00E00000
00E00000
01C00000
01C00000
01C00000
03800000
03800000
ENDCHAR
STARTCHAR U+251C
ENCODING 9500
SWIDTH 1000 0
DWIDTH 20 0
BBX 26 20 -3 -4
BITMAP
000E0000
000E0000
000E0000
001C0000
001C0000
001C0000
00380000
00380000
003FFF00
007FFE00
00700000
00700000
00E00000
00E00000
00E00000
01C00000
01C00000
01C00000
03800000
03800000
ENDCHAR
STARTCHAR U+23BD
ENCODING 9149
SWIDTH 1000 0
DWIDTH 20 0
BBX 26 20 -3 -4
BITMAP
00000000
00000000
00000000
00000000
00000000
00000000
00000000
00000000
00000000
00000000
00000000
00000000
00000000
00000000
00000000
00000000
7FFFF800
7FFFF800
00000000
00000000
ENDCHAR
STARTCHAR U+23BC
ENCODING 9148
SWIDTH 1000 0
DWIDTH 20 0
BBX 26 20 -3 -4
BITMAP
00000000
00000000
00000000
00000000
00000000
00000000
00000000
00000000
00000000
00000000
00000000
00000000
3FFFFC00
3FFFFC00
00000000
00000000
00000000
00000000
00000000
00000000
ENDCHAR
STARTCHAR U+2500
ENCODING 9472
SWIDTH 1000 0
DWIDTH 20 0
BBX 26 20 -3 -4
BITMAP
00000000
00000000
00000000
00000000
00000000
00000000
00000000
00000000
0FFFFF00
1FFFFE00
00000000
00000000
00000000
00000000
00000000
00000000
00000000
00000000
00000000
00000000
ENDCHAR
STARTCHAR U+23BB
ENCODING 9147
SWIDTH 1000 0
DWIDTH 20 0
BBX 26 20 -3 -4
BITMAP
00000000
00000000
00000000
00000000
07FFFF80
07FFFF80
00000000
00000000
00000000
00000000
00000000
00000000
00000000
00000000
00000000
00000000
00000000
00000000
00000000
00000000
ENDCHAR
STARTCHAR U+23BA
ENCODING 9146
SWIDTH 1000 0
DWIDTH 20 0
BBX 26 20 -3 -4
BITMAP
03FFFFC0
03FFFFC0
00000000
00000000
00000000
00000000
00000000
00000000
00000000
00000000
00000000
00000000
00000000
00000000
00000000
00000000
00000000
00000000
00000000
00000000
ENDCHAR
STARTCHAR U+253C
ENCODING 9532
SWIDTH 1000 0
DWIDTH 20 0
BBX 26 20 -3 -4
BITMAP
000E0000
000E0000
000E0000
001C0000
001C0000
001C0000
00380000
00380000
0FFFFF00
1FFFFE00
00700000
00700000
00E00000
00E00000
00E00000
01C00000
01C00000
01C00000
03800000
03800000
ENDCHAR
STARTCHAR U+2514
ENCODING 9492
SWIDTH 1000 0
DWIDTH 20 0
BBX 26 20 -3 -4
BITMAP
000E0000
000E0000
000E0000
001C0000
001C0000
001C0000
00380000
00380000
003FFF00
007FFE00
00000000
00000000
00000000
00000000
00000000
00000000
00000000
00000000
00000000
00000000
ENDCHAR
STARTCHAR U+250C
ENCODING 9484
SWIDTH 1000 0
DWIDTH 20 0
BBX 26 20 -3 -4
BITMAP
00000000
00000000
00000000
00000000
00000000
00000000
00000000
00000000
003FFF00
007FFE00
00700000
00700000
00E00000
00E00000
00E00000
01C00000
01C00000
01C00000
03800000
03800000
ENDCHAR
STARTCHAR U+2510
ENCODING 9488
SWIDTH 1000 0
DWIDTH 20 0
BBX 26 20 -3 -4
BITMAP
00000000
00000000
00000000
00000000
00000000
00000000
00000000
00000000
0FF80000
1FF00000
00700000
00700000
00E00000
00E00000
00E00000
01C00000
01C00000
01C00000
03800000
03800000
ENDCHAR
STARTCHAR U+2518
ENCODING 9496
SWIDTH 1000 0
DWIDTH 20 0
BBX 26 20 -3 -4
BITMAP
000E0000
000E0000
000E0000
001C0000
001C0000
001C0000
00380000
00380000
0FF80000
1FF00000
00000000
00000000
00000000
00000000
00000000
00000000
00000000
00000000
00000000
00000000
ENDCHAR
STARTCHAR U+240B
ENCODING 9227
SWIDTH 1000 0
DWIDTH 20 0
BBX 26 20 -3 -4
BITMAP
00000000
00000000
03838000
07070000
07070000
07070000
03B80000
03B80000
03B80000
07700000
01FFC000
01FFC000
00380000
00380000
00380000
00700000
00700000
00700000
00E00000
00E00000
ENDCHAR
STARTCHAR U+2424
ENCODING 9252
SWIDTH 1000 0
DWIDTH 20 0
BBX 26 20 -3 -4
BITMAP
00000000
00000000
03838000
07070000
07C70000
07C70000
0EEE0000
0EEE0000
0E3E0000
1C7C0000
1C7C0000
1C7C0000
00E00000
00E00000
00E00000
01C00000
01C00000
01C00000
03FE0000
03FE0000
ENDCHAR
STARTCHAR U+00B1
ENCODING 177
SWIDTH 1000 0
DWIDTH 20 0
BBX 26 20 -3 -4
BITMAP
00000000
00000000
00000000
00000000
001C0000
001C0000
00380000
00380000
0FFFE000
1FFFC000
00700000
00700000
00E00000
00E00000
3FFF8000
7FFF0000
00000000
00000000
00000000
00000000
ENDCHAR
STARTCHAR U+00B0
ENCODING 176
SWIDTH 1000 0
DWIDTH 20 0
BBX 26 20 -3 -4
BITMAP
00000000
00000000
003F8000
007F0000
01C1C000
01C1C000
00FE0000
00FE0000
00000000
00000000
00000000
00000000
00000000
00000000
00000000
00000000
00000000
00000000
00000000
00000000
ENDCHAR
STARTCHAR U+240A
ENCODING 9226
SWIDTH 1000 0
DWIDTH 20 0
BBX 26 20 -3 -4
BITMAP
00000000
00000000
03800000
07000000
07000000
07000000
0E000000
0E000000
0E000000
1C000000
1FFFC000
1FFFC000
00E00000
00E00000
00FE0000
01FC0000
01C00000
01C00000
03800000
03800000
ENDCHAR
STARTCHAR U+240D
ENCODING 9229
SWIDTH 1000 0
DWIDTH 20 0
BBX 26 20 -3 -4
BITMAP
00000000
00000000
00FE0000
01FC0000
07000000
07000000
0E000000
0E000000
0E000000
1C000000
07FF0000
07FF0000
00E38000
00E38000
00FE0000
01FC0000
01C70000
01C70000
038E0000
038E0000
ENDCHAR
STARTCHAR U+240C
ENCODING 9228
SWIDTH 1000 0
DWIDTH 20 0
BBX 26 20 -3 -4
BITMAP
00000000
00000000
03FE0000
07FC0000
07000000
07000000
0FE00000
0FE00000
0E000000
1C000000
1C7FC000
1C7FC000
00E00000
00E00000
00FE0000
01FC0000
01C00000
01C00000
03800000
03800000
ENDCHAR
STARTCHAR U+2409
ENCODING 9225
SWIDTH 1000 0
DWIDTH 20 0
BBX 26 20 -3 -4
BITMAP
00000000
00000000
038E0000
071C0000
071C0000
071C0000
0FF80000
0FF80000
0E380000
1C700000
1DFFC000
1DFFC000
00380000
00380000
00380000
00700000
00700000
00700000
00E00000
00E00000
ENDCHAR
STARTCHAR U+2592
ENCODING 9618
SWIDTH 1000 0
DWIDTH 20 0
BBX 26 20 -3 -4
BITMAP
00000000
00000000
038E3800
071C7000
01C1C000
01C1C000
0E38E000
0E38E000
03838000
07070000
1C71C000
1C71C000
0E0E0000
0E0E0000
38E38000
71C70000
00000000
00000000
00000000
00000000
ENDCHAR
STARTCHAR U+25C6
ENCODING 9670
SWIDTH 1000 0
DWIDTH 20 0
BBX 26 20 -3 -4
BITMAP
00000000
00000000
000E0000
001C0000
007F0000
007F0000
03FF8000
03FF8000
0FFFE000
1FFFC000
07FF0000
07FF0000
03F80000
03F80000
00E00000
01C00000
00000000
00000000
00000000
00000000
ENDCHAR
STARTCHAR U+0020
ENCODING 32
SWIDTH 1000 0
DWIDTH 20 0
BBX 26 20 -3 -4
BITMAP
00000000
00000000
00000000
00000000
00000000
00000000
00000000
00000000
00000000
00000000
00000000
00000000
00000000
00000000
00000000
00000000
00000000
00000000
00000000
00000000
ENDCHAR
ENDFONT
